# xmcd
#
# Track frame offsets:
#	150
#	11637
#	28347
#	43100
#	54203
#	70010
#	86056
#	103056
#	117801
#	129243
#	144365
#	155462
#	168950
#	181192
#
# Disc length: 2613 seconds
#
# Revision: 0
# Processed by: cddbd v1.5.2PL0 Copyright (c) Steve Scherf et al.
# Submitted via: dBpowerAMP V4.0
#
DISCID=b00a330e
DTITLE=Doyle Lawson and Quicksilver - Help Is On The Way
DYEAR=2008
DGENRE=Bluegrass
TTITLE0=I Know , I Know
TTITLE1=Help Is On The Way
TTITLE2=Eternity Has Two
TTITLE3=One Of These Days
TTITLE4=God Is Love
TTITLE5=Land Of The Dying
TTITLE6=I Won't Have To Worry Anymore
TTITLE7=When The Hand Of God Comes Down
TTITLE8=The Black Sheep Returned To The Fold
TTITLE9=I'm The Clay In Your Hands
TTITLE10=Press On 'O Pilgrim , There Is Joy Ahead
TTITLE11=What Shall I Do With Jesus
TTITLE12=He Made It All Right
TTITLE13=Keep Your Eyes On Jesus
EXTD=
EXTT0=
EXTT1=
EXTT2=
EXTT3=
EXTT4=
EXTT5=
EXTT6=
EXTT7=
EXTT8=
EXTT9=
EXTT10=
EXTT11=
EXTT12=
EXTT13=
PLAYORDER=
